<svg width="299" height="429" viewBox="0 0 299 429" fill="none" xmlns="http://www.w3.org/2000/svg">
<g clip-path="url(#clip0_1498_5)">
<path d="M143 100.746C128.137 103.957 117 117.177 117 133V187H0V0H143V100.746Z" fill="#464646"/>
<path d="M299 187H183V133C183 116.824 171.361 103.368 156 100.546V0H299V187Z" fill="#464646"/>
<path d="M117 204C117 222.225 131.775 237 150 237C168.225 237 183 222.225 183 204V199H299V429H0V199H117V204ZM148.269 220.912C148.646 220.95 149.028 220.975 149.412 220.988C149.028 220.975 148.646 220.95 148.269 220.912ZM147.024 220.739C147.254 220.78 147.484 220.815 147.717 220.847C147.484 220.815 147.254 220.78 147.024 220.739ZM134.012 209.789C133.987 209.721 133.963 209.652 133.939 209.583C133.963 209.652 133.987 209.721 134.012 209.789Z" fill="#464646"/>
<path d="M133 133C133 123.611 140.611 116 150 116C159.389 116 167 123.611 167 133V204C167 213.389 159.389 221 150 221C140.611 221 133 213.389 133 204V133Z" fill="#464646"/>
</g>
<defs>
<clipPath id="clip0_1498_5">
<rect width="299" height="429" rx="115" fill="white"/>
</clipPath>
</defs>
</svg>
